<?xml version="1.0" encoding="UTF-8" standalone="no"?><svg xmlns="http://www.w3.org/2000/svg" xmlns:xlink="http://www.w3.org/1999/xlink" fill="#f3f4f4" height="816.1" preserveAspectRatio="xMidYMid meet" version="1" viewBox="0.0 -0.0 920.4 816.1" width="920.4" zoomAndPan="magnify"><g><g id="change1_1"><path d="M0,0.38c3.55,13.58,6.36,27.39,10.76,40.69c8.67,26.18,16.75,52.69,27.79,77.88c11.39,25.99,31.73,44.59,56.67,58.72 c90.59,51.31,180.85,103.23,271.21,154.93c2.64,1.52,5.19,3.22,7.42,5.46C265.9,288.92,160.87,234.28,57.9,170.96 c1.44,3.82,1.9,5.81,2.86,7.54c16.46,29.69,33.22,59.2,49.46,89.01c14.89,27.32,38.8,39.02,68.54,43.53 c49.85,7.55,99.48,16.57,149.21,25.01c15.61,2.66,31.21,5.43,46.73,8.75c-77.86-3.24-154.95-13.14-232.62-24.5 c4.44,3.7,8.93,7.35,13.33,11.1c18.45,15.74,37.4,30.95,55.16,47.47c14.22,13.21,28.88,15.59,47.06,9.4 c37.72-12.83,75.89-24.39,113.88-36.47c1.25-0.39,2.55-0.63,4.03-0.26c-14.17,6.63-28.52,12.92-42.48,19.94 c-19.8,9.95-37.46,23.01-52.45,39.37c-15.47,16.89-17.83,35.36-4.83,53.86c17.52,24.92,36.56,48.8,55.95,72.96 c-17.1-72.36-0.72-134.73,54.2-185.85c-1.46,2.72-2.9,5.48-4.39,8.21c-17.4,31.91-32.45,64.72-37.57,101.21 c-3.65,25.88,0.27,49.68,20.27,68.45c21.43,20.11,43.2,39.86,64.79,59.8c8.1,7.47,16.1,15.06,24.75,22.36 c-45.46-80.77-65.06-167.83-62.71-260.37c11.27,36.93,22.56,73.85,33.8,110.8c11.22,36.9,22.37,73.82,35.6,110.7 c22.44-73.83,44.9-147.68,67.34-221.53c2.4,92.35-17.08,179.25-62.08,260.45c1.44-1.23,2.91-2.43,4.3-3.72 c1.47-1.35,2.79-2.86,4.28-4.2c22.39-20.35,44.11-41.52,67.39-60.8c33.22-27.48,40.55-61.26,29.64-101.41 c-7.83-28.85-19.68-55.83-34.02-81.87c-1.23-2.26-2.52-4.47-3.7-6.75c-0.22-0.41,0.02-1.04,0.1-2.67 c26,24.29,44.09,52.49,53.34,86.2c9.18,33.54,8.03,67.03,0.45,101.14c12.08-15.35,24.24-30.66,36.21-46.12 c5.93-7.66,11.67-15.5,17.25-23.43c15.04-21.31,13.55-40.39-4.47-59.41c-21.43-22.61-47.91-37.52-76.21-49.58 c-5.72-2.43-11.43-4.92-16.67-8.75c22.29,6.58,44.68,12.88,66.84,19.84c16.31,5.1,32.65,10.31,48.41,16.86 c19.43,8.05,35.22,5.07,50.72-9.49c19.34-18.14,40.24-34.6,60.45-51.79c2.14-1.83,4.27-3.67,6.18-6.34 c-77.02,11.94-154.12,22-232.07,24.72c29.34-5.29,58.66-10.84,88.07-15.83c39.04-6.61,78.18-12.68,117.26-19.19 c23.67-3.94,43.29-14.95,55.52-36.09c18.55-32.1,36.28-64.67,54.34-97.06c0.5-0.89,0.67-1.95,1.75-5.24 c-102.95,63.28-208.07,118-316.59,166.25c28.27-16.58,56.36-33.46,84.83-49.68c63.19-36.03,126.22-72.38,190.03-107.29 c32.41-17.73,55.97-42.59,68.4-76.78c12.23-33.61,21.89-68.16,32.67-102.3c-0.86-0.38-1.71-0.75-2.57-1.13 c-1.04,0.98-2.33,1.8-3.12,2.96c-48.62,70.8-112.5,124.62-186.09,167.74c-48.48,28.42-96.67,57.34-145.23,85.62 c-23.83,13.89-35.12,36.66-44.93,60.63c-3.65,8.93-6.3,18.28-9.78,28.49c-12.83-16.98-19.43-35.07-18.42-55.93 c0.38-7.93,1.35-16.34-0.72-23.76c-6.8-24.29-25.9-34.93-48.72-40.19c-13.04-3.01-25.34-1.8-36.09,7.74 c-2.54,2.24-7.43,2.09-11.29,2.5c-16.62,1.82-24.07,9.73-22.03,23.67c24.72-6.68,41.83,7.26,40.92,33.37 c-0.93,26.28-19.2,49.37-42.12,52.71c-3.34-9.8-6.39-19.8-10.11-29.55c-10.9-28.54-27.79-51.34-55.5-66.83 c-50.06-27.94-99.12-57.66-148.3-87.14C108.11,121.15,50.02,69.16,4.59,3.53C3.67,2.21,2.57,0.99,0,0.38z M438.15,246.22l0.22-6.53 l17.83,4.35l-0.14,1.92L438.15,246.22z"/></g><g id="change1_2"><path d="M310.53,742.23c18.29,0,34.75,0.89,51.06-0.28c13.2-0.94,24.25-8.02,32.97-18.08c21.81-25.15,34.62-54.81,41.97-86.85 c3.89-16.97-7.26-40.53-25.57-56.02c3.09,7.38,5.53,13.19,7.96,19.01c7.35,17.51,6.14,33.81-4.14,50.38 c-23.09,37.2-55.53,63.82-92.82,85.37C318.64,737.68,315.29,739.54,310.53,742.23z"/></g><g id="change1_3"><path d="M606.74,741.62c-8.92-5.39-18-10.53-26.74-16.2c-30.24-19.64-56.09-43.59-75.54-74.43c-10.78-17.09-11.89-33.91-4.13-51.95 c2.32-5.4,4.65-10.8,7.24-16.84c-17.73,11.58-29.14,38.91-24.4,58.31c6.62,27.11,17.72,52.2,34.14,74.94 c13.54,18.74,31.2,28.53,54.63,27.68c11.5-0.42,23.04-0.07,34.56-0.07C606.58,742.57,606.66,742.09,606.74,741.62z"/></g><g id="change1_4"><path d="M459.88,816.14c14.38-20.72,20.4-42.52,15.21-66.86c-4.79-22.47-9.58-44.94-14.37-67.41c-0.7-0.09-1.4-0.17-2.1-0.26 c-1.02,4.39-2.1,8.78-3.05,13.18c-4.1,18.88-8.35,37.74-12.21,56.67C438.86,773.49,445.41,799.09,459.88,816.14z"/></g><g id="change1_5"><path d="M447.54,645.83c-9.72,21.75-19.36,45.75-31.01,68.74c-11.75,23.19-28.64,42.92-48.16,61.02 c23.78,4.69,49.46-8.86,60.29-31.88C443.64,711.87,449.22,678.16,447.54,645.83z"/></g><g id="change1_6"><path d="M472.13,643.13c-2.53,34.42,3.15,67.29,17.04,98.55c10.75,24.19,33.5,36.98,61.89,34.55 C511.16,739.13,486.83,693.94,472.13,643.13z"/></g><g id="change1_7"><path d="M659.48,626.87c-8.92-5.39-18-10.53-26.74-16.2c-30.24-19.64-56.09-43.59-75.54-74.43c-10.78-17.09-11.89-33.91-4.13-51.95 c2.32-5.4,4.65-10.8,7.24-16.84c-17.73,11.58-29.14,38.91-24.4,58.31c6.62,27.11,17.72,52.2,34.14,74.94 c13.54,18.74,31.2,28.53,54.63,27.68c11.5-0.42,23.04-0.07,34.56-0.07C659.33,627.83,659.4,627.35,659.48,626.87z"/></g><g id="change1_8"><path d="M524.87,528.39c-2.53,34.42,3.15,67.29,17.04,98.55c10.75,24.19,33.5,36.98,61.89,34.55 C563.91,624.38,539.58,579.19,524.87,528.39z"/></g><g id="change1_9"><path d="M266.84,626.87c8.92-5.39,18-10.53,26.74-16.2c30.24-19.64,56.09-43.59,75.54-74.43c10.78-17.09,11.89-33.91,4.13-51.95 c-2.32-5.4-4.65-10.8-7.24-16.84c17.73,11.58,29.14,38.91,24.4,58.31c-6.62,27.11-17.72,52.2-34.14,74.94 c-13.54,18.74-31.2,28.53-54.63,27.68c-11.5-0.42-23.04-0.07-34.56-0.07C267,627.83,266.92,627.35,266.84,626.87z"/></g><g id="change1_10"><path d="M401.46,528.39c2.53,34.42-3.15,67.29-17.04,98.55c-10.75,24.19-33.5,36.98-61.89,34.55 C362.42,624.38,386.75,579.19,401.46,528.39z"/></g><g id="change2_1"><path d="M438.37,245.96c5.9,0,11.8,0,17.71,0c0.04-0.64,0.09-1.28,0.13-1.91c-5.89-0.49-11.77-0.98-17.66-1.48 C438.49,243.7,438.43,244.83,438.37,245.96z" fill="#f3f4f4"/></g></g></svg>